<?xml version="1.0" encoding="utf-8"?>
<!-- Generator: Adobe Illustrator 26.2.1, SVG Export Plug-In . SVG Version: 6.00 Build 0)  -->
<svg version="1.1" id="Layer_2" xmlns="http://www.w3.org/2000/svg" xmlns:xlink="http://www.w3.org/1999/xlink" x="0px" y="0px"
	 viewBox="0 0 55.9 66" style="enable-background:new 0 0 55.9 66;" xml:space="preserve">
<style type="text/css">
	.st0{fill:#FFFFFF;stroke:#1F2839;stroke-width:2;stroke-linecap:round;stroke-linejoin:round;}
	.st1{fill:#FFFFFF;stroke:#1F2839;stroke-width:2;stroke-linejoin:round;}
	.st2{fill:#FFFFFF;stroke:#1F2839;stroke-width:2;}
	.st3{fill:#D7E0E2;stroke:#1F2839;stroke-width:2;stroke-linecap:round;stroke-linejoin:round;}
</style>
<g>
	<g>
		<g>
			<path class="st0" d="M50.3,7.9c0,2.9-2.3,5.2-5.2,5.2c-2.9,0-5.2-2.3-5.2-5.2c0-2.9,2.3-5.2,5.2-5.2C47.9,2.7,50.3,5,50.3,7.9z"
				/>
			<g>
				<path class="st1" d="M54.9,18.8c0-1.9-1.6-3.5-3.5-3.5H38.7c-1.9,0-3.5,1.6-3.5,3.5v16.1h3.9v23.7h11.8V34.9h3.9V18.8z"/>
				<line class="st1" x1="45.1" y1="36.9" x2="45.1" y2="58.6"/>
			</g>
		</g>
		<line class="st2" x1="45.1" y1="18.4" x2="45.1" y2="20.5"/>
		<line class="st2" x1="45.1" y1="21.7" x2="45.1" y2="23.8"/>
		<line class="st2" x1="45.1" y1="25" x2="45.1" y2="27"/>
	</g>
	<g>
		<g>
			<path class="st0" d="M16,7.9c0,2.9-2.3,5.2-5.2,5.2c-2.9,0-5.2-2.3-5.2-5.2C5.6,5,8,2.7,10.8,2.7C13.7,2.7,16,5,16,7.9z"/>
			<g>
				<path class="st1" d="M20.6,18.8c0-1.9-1.6-3.5-3.5-3.5H4.5c-1.9,0-3.5,1.6-3.5,3.5v16.1h3.9v23.7h11.8V34.9h3.9V18.8z"/>
				<line class="st1" x1="10.8" y1="36.9" x2="10.8" y2="58.6"/>
			</g>
		</g>
		<line class="st2" x1="10.8" y1="18.4" x2="10.8" y2="20.5"/>
		<line class="st2" x1="10.8" y1="21.7" x2="10.8" y2="23.8"/>
		<line class="st2" x1="10.8" y1="25" x2="10.8" y2="27"/>
	</g>
</g>
<polygon class="st3" points="27.9,57.2 15.7,44.7 15.7,63.3 40.1,63.3 40.1,44.7 "/>
<polygon class="st0" points="40.1,44.7 40.1,44.6 15.7,44.6 15.7,44.7 27.9,57.2 "/>
</svg>
