<?xml version="1.0" encoding="utf-8"?>
<!-- Generator: Adobe Illustrator 26.2.1, SVG Export Plug-In . SVG Version: 6.00 Build 0)  -->
<svg version="1.1" id="icon" xmlns="http://www.w3.org/2000/svg" xmlns:xlink="http://www.w3.org/1999/xlink" x="0px" y="0px"
	 viewBox="0 0 25.6 29" style="enable-background:new 0 0 25.6 29;" xml:space="preserve">
<style type="text/css">
	.st0{fill:none;stroke:#424242;stroke-width:1.8;stroke-linecap:round;stroke-linejoin:round;stroke-miterlimit:10;}
</style>
<path class="st0" d="M0.9,8.7c0,9.9,5.3,17.9,11.9,17.9s11.9-8,11.9-17.9c0-2.2-0.3-4.4-0.8-6.3H1.7C1.2,4.4,0.9,6.5,0.9,8.7z"/>
<path class="st0" d="M15.2,10.1L15.2,10.1c1.4-1,3.3-0.6,4.3,0.7l0,0"/>
<path class="st0" d="M10.5,10.1L10.5,10.1c-1.4-1-3.3-0.6-4.3,0.7l0,0"/>
<path class="st0" d="M16.6,18.7L16.6,18.7c-2.1,1.2-5.4,1.2-7.5,0l0,0"/>
</svg>
