<?xml version="1.0" encoding="utf-8"?>
<!-- Generator: Adobe Illustrator 26.2.1, SVG Export Plug-In . SVG Version: 6.00 Build 0)  -->
<svg version="1.1" id="Layer_2" xmlns="http://www.w3.org/2000/svg" xmlns:xlink="http://www.w3.org/1999/xlink" x="0px" y="0px"
	 viewBox="0 0 59.5 66" style="enable-background:new 0 0 59.5 66;" xml:space="preserve">
<style type="text/css">
	.st0{fill:#FFFFFF;stroke:#1F2839;stroke-width:2;stroke-linejoin:round;}
	.st1{fill:#D7E0E2;stroke:#1F2839;stroke-width:2;stroke-linecap:round;stroke-linejoin:round;}
</style>
<g>
	<g>
		<path class="st0" d="M54.1,53.8c0,1.9-1.6,2.8-3.5,2.8H8.9c-1.9,0-3.5-0.9-3.5-2.8V19.7c0-1.9,1.6-3.5,3.5-3.5h41.7
			c1.9,0,3.5,1.6,3.5,3.5V53.8z"/>
		<g>
			<path class="st0" d="M35,52.2h23.5v1.2v1.2v0.5v1.2c0,0.5-0.1,0.9-0.3,1.4c-0.2,0.4-0.4,0.8-0.8,1.1c-0.3,0.3-0.7,0.6-1.1,0.8
				c-0.4,0.2-0.9,0.3-1.4,0.3H42.4H29.7H17.1H4.5c-0.5,0-0.9-0.1-1.4-0.3c-0.4-0.2-0.8-0.4-1.1-0.8c-0.3-0.3-0.6-0.7-0.8-1.1
				C1.1,57.3,1,56.8,1,56.3v-1.2v-0.5v-1.2v-1.2h23.5H35z"/>
		</g>
	</g>
</g>
<g>
	<line class="st0" x1="12.9" y1="27.4" x2="15.9" y2="27.4"/>
	<line class="st0" x1="17.6" y1="27.4" x2="37.6" y2="27.4"/>
</g>
<g>
	<g>
		<g>
			<g>
				<g>
					<polygon class="st1" points="26.5,25.7 26.5,32.1 31.7,32.1 36.8,32.1 41.9,32.1 47.1,32.1 47.1,26.8 47.1,21.6 47.1,16.3 
						47.1,11.1 45.9,10 44.8,8.9 43.6,7.8 42.5,6.7 38.5,6.7 34.5,6.7 30.5,6.7 26.5,6.7 26.5,21.9 					"/>
				</g>
				<polyline class="st1" points="43.9,12.7 40.7,12.7 40.7,9.7 				"/>
			</g>
		</g>
	</g>
</g>
<line class="st0" x1="12.9" y1="39.1" x2="47.4" y2="39.1"/>
<line class="st0" x1="12.9" y1="44.7" x2="47.4" y2="44.7"/>
<g>
	<line class="st0" x1="19.5" y1="5.1" x2="19.5" y2="10.4"/>
	<line class="st0" x1="16.8" y1="7.8" x2="22.1" y2="7.8"/>
</g>
</svg>
