<?xml version="1.0" encoding="utf-8"?>
<!-- Generator: Adobe Illustrator 26.2.1, SVG Export Plug-In . SVG Version: 6.00 Build 0)  -->
<svg version="1.1" id="Layer_2" xmlns="http://www.w3.org/2000/svg" xmlns:xlink="http://www.w3.org/1999/xlink" x="0px" y="0px"
	 viewBox="0 0 68.4 66" style="enable-background:new 0 0 68.4 66;" xml:space="preserve">
<style type="text/css">
	.st0{fill:#FFFFFF;stroke:#1F2839;stroke-width:2;stroke-linejoin:round;}
	.st1{fill:#D7E0E2;stroke:#1F2839;stroke-width:2;stroke-linecap:round;stroke-linejoin:round;}
</style>
<path class="st0" d="M20.3,31.6c-3.3,0-6-2.7-6-6v33.4c0,3.3,2.7,6,6,6h43.9V31.6H20.3z"/>
<path class="st0" d="M64.2,19.5v12.1H20.3c-3.3,0-6-2.7-6-6c0-3.3,2.7-6,6-6H64.2z"/>
<path class="st0" d="M64.2,23.6v3.8H20.3c-1.1,0-1.9-0.9-1.9-1.9c0-1.1,0.9-1.9,1.9-1.9H64.2z"/>
<path class="st0" d="M64.2,31.6V65H20.3c-1.4,0-2.6-0.4-3.6-1.2V30.4c1,0.8,2.3,1.2,3.6,1.2H64.2z"/>
<path class="st0" d="M64.2,35.8v3.5c0,1.7-1.4,3-3,3H50.6c-3.3,0-5.9,2.7-5.9,5.9v0c0,3.3,2.7,5.9,5.9,5.9H61c3.6,0,6.5-2.9,6.5-6.5
	v-5.4v-3.3C67.4,37.3,66,35.8,64.2,35.8L64.2,35.8z"/>
<circle class="st0" cx="51" cy="48.3" r="2.4"/>
<path class="st0" d="M50.3,24.7c0,0.9-0.1,1.9-0.3,2.7H28.4c-0.2-0.9-0.3-1.8-0.3-2.7c0-0.4,0-0.7,0.1-1.1c0.6-5.6,5.3-10,11.1-10
	c5.8,0,10.5,4.4,11.1,10C50.3,24,50.3,24.3,50.3,24.7z"/>
<g>
	<path class="st0" d="M41.8,27.4c0-1.4-1.2-2.6-2.6-2.6c-1.4,0-2.6-1.2-2.6-2.6c0-1.4,1.2-2.6,2.6-2.6c1.4,0,2.6,1.2,2.6,2.6"/>
	<line class="st0" x1="39.2" y1="19.7" x2="39.2" y2="18.1"/>
</g>
<line class="st0" x1="39.2" y1="6.6" x2="39.2" y2="0"/>
<line class="st0" x1="27.2" y1="9.8" x2="24" y2="4.1"/>
<line class="st0" x1="51.2" y1="9.8" x2="54.5" y2="4.1"/>
<path class="st1" d="M6.6,41.7h26.7c3.1,0,5.6,2.5,5.6,5.6v12.1c0,3.1-2.5,5.6-5.6,5.6H6.6C3.5,65,1,62.5,1,59.4V47.3
	C1,44.2,3.5,41.7,6.6,41.7z"/>
<rect x="6.2" y="51" class="st0" width="4.6" height="4.6"/>
<line class="st0" x1="17.6" y1="59.6" x2="19.6" y2="59.6"/>
<line class="st0" x1="22.3" y1="59.6" x2="24.3" y2="59.6"/>
<line class="st0" x1="27.1" y1="59.6" x2="29.1" y2="59.6"/>
<line class="st0" x1="31.8" y1="59.6" x2="33.8" y2="59.6"/>
</svg>
