<?xml version="1.0" encoding="utf-8"?>
<!-- Generator: Adobe Illustrator 26.2.1, SVG Export Plug-In . SVG Version: 6.00 Build 0)  -->
<svg version="1.1" id="Layer_2" xmlns="http://www.w3.org/2000/svg" xmlns:xlink="http://www.w3.org/1999/xlink" x="0px" y="0px"
	 viewBox="0 0 63.7 66" style="enable-background:new 0 0 63.7 66;" xml:space="preserve">
<style type="text/css">
	.st0{fill:#FFFFFF;stroke:#1F2839;stroke-width:2;stroke-linejoin:round;}
	.st1{fill:#D7E0E2;stroke:#1F2839;stroke-width:2;stroke-linecap:round;stroke-linejoin:round;}
</style>
<g>
	<g>
		<rect x="1" y="15.4" class="st0" width="41.8" height="6"/>
		<rect x="1" y="21.4" class="st0" width="41.8" height="33"/>
	</g>
	<line class="st0" x1="3.8" y1="18.3" x2="4.9" y2="18.3"/>
	<line class="st0" x1="6.9" y1="18.3" x2="8" y2="18.3"/>
</g>
<g>
	<path class="st0" d="M31.4,44.7v5.4V44.7c-0.5-0.2-0.6-0.4-1.2-0.6c-0.9-0.3-1.7-0.6-2.6-0.8v6.8v-6.8c-1.6-0.4-3.1-0.6-4.2-0.8
		v-9.9c0-1.5-1.2-2.7-2.7-2.7c-1.5,0-2.7,1.2-2.7,2.7v19.6l-5.5-4.8c-1.2-1-3-0.9-4,0.3c-1,1.2-0.9,3,0.3,4l8.6,11.4
		c0.2,0.2,14.6,0,14.6,0s2.7-1,2.7-5.1s0-10.7,0-10.7S34,45.9,31.4,44.7z"/>
	<line class="st0" x1="23.3" y1="42.5" x2="23.3" y2="50.1"/>
</g>
<rect x="32.9" y="2.8" class="st0" width="29.8" height="6"/>
<rect x="32.9" y="8.8" class="st1" width="29.8" height="23.7"/>
<path class="st0" d="M45.3,17.2l1.5-1c0,0,0.6-0.2,0.3-1.1c-0.3-0.9-1.4-2.6-1.4-2.6s-0.7-0.7-1.5-0.1c-0.9,0.7-2.2,2.6-1.8,6.1
	c0.5,3.6,5.3,9.5,7.9,10.6c2.6,1.1,4.4-0.4,4.9-0.6c0.5-0.2,0.6-0.8,0.3-1.5c-0.4-0.7-1.8-2.2-1.8-2.2s-0.5-0.5-1.2,0
	c-0.8,0.5-0.9,1.1-2,0.7c-1.1-0.3-4.6-5.3-5.3-7C45.1,18.6,44.7,17.5,45.3,17.2z"/>
</svg>
