<?xml version="1.0" encoding="utf-8"?>
<!-- Generator: Adobe Illustrator 26.2.1, SVG Export Plug-In . SVG Version: 6.00 Build 0)  -->
<svg version="1.1" id="Layer_2" xmlns="http://www.w3.org/2000/svg" xmlns:xlink="http://www.w3.org/1999/xlink" x="0px" y="0px"
	 viewBox="0 0 59.8 66" style="enable-background:new 0 0 59.8 66;" xml:space="preserve">
<style type="text/css">
	.st0{fill:#D7E0E2;stroke:#1F2839;stroke-width:2;stroke-linecap:round;stroke-linejoin:round;}
	.st1{fill:#FFFFFF;stroke:#1F2839;stroke-width:2;stroke-linejoin:round;}
</style>
<g>
	<path class="st0" d="M32.5,5h22c2,0,3.7,1.6,3.7,3.7v12c0,2-1.6,3.7-3.7,3.7h-5.4l3.1,8l-12.9-8h-6.8c-2,0-3.7-1.6-3.7-3.7v-12
		C28.8,6.7,30.4,5,32.5,5z"/>
	<line class="st0" x1="51.3" y1="11.9" x2="35.6" y2="11.9"/>
	<line class="st0" x1="51.3" y1="17.4" x2="35.6" y2="17.4"/>
</g>
<g>
	<path class="st1" d="M36.6,16.3H6.1c-2.8,0-5.1,2.3-5.1,5.1v16.7c0,2.8,2.3,5.1,5.1,5.1h7.5L9.2,54.4l18-11.1h9.4
		c2.8,0,5.1-2.3,5.1-5.1V21.4C41.7,18.6,39.4,16.3,36.6,16.3z"/>
	<line class="st1" x1="10.4" y1="25.9" x2="32.3" y2="25.9"/>
	<line class="st1" x1="10.4" y1="33.5" x2="32.3" y2="33.5"/>
</g>
<polygon class="st1" points="50.2,42.9 33.9,36.1 40.7,52.4 43.2,50 54.2,61 58.8,56.3 47.8,45.4 "/>
</svg>
