<?xml version="1.0" encoding="utf-8"?>
<!-- Generator: Adobe Illustrator 27.0.0, SVG Export Plug-In . SVG Version: 6.00 Build 0)  -->
<svg version="1.1" id="Layer_1" xmlns="http://www.w3.org/2000/svg" xmlns:xlink="http://www.w3.org/1999/xlink" x="0px" y="0px"
	 viewBox="0 0 840 492" style="enable-background:new 0 0 840 492;" xml:space="preserve">
<style type="text/css">
	.st0{fill:#343538;}
	.st1{fill:#352A85;}
</style>
<g id="HQhfJB.tif">
</g>
<path class="st0" d="M803.5,103.4c-32.8,32.8-78.1,53.1-128,53.1c-49.9,0-95.2-20.3-128-53.1L511,140l0,0
	c42.2,42.1,100.4,68.2,164.5,68.2c64.2,0,122.4-26.1,164.5-68.2l0,0L803.5,103.4z"/>
<path class="st0" d="M35.5,103.4c32.8,32.8,78.1,53.1,128,53.1c49.9,0,95.2-20.3,128-53.1L328,140l0,0
	c-42.2,42.1-100.4,68.2-164.5,68.2C99.4,208.3,41.2,182.2-1,140l0,0L35.5,103.4z"/>
<path class="st1" d="M291.5,103.4c32.8-32.8,78.1-53.1,128-53.1c49.9,0,95.2,20.3,128,53.1L584,66.8l0,0
	C541.9,24.7,483.7-1.4,419.5-1.4c-64.2,0-122.4,26.1-164.5,68.2l0,0L291.5,103.4z"/>
<path class="st0" d="M364.4,309c-4.4,0-7.6,3.8-7.6,9.1c0,5.3,3.2,9.1,7.6,9.1c4.4,0,7.6-3.8,7.6-9.1C372,312.8,368.8,309,364.4,309
	 M364.4,324.8c-3,0-5.1-2.7-5.1-6.7s2.1-6.7,5.1-6.7c3,0,5.1,2.7,5.1,6.7S367.4,324.8,364.4,324.8"/>
<path class="st0" d="M424.8,317.7h-5.1v2.4h4.9c-0.6,2.8-2.5,4.6-4.9,4.6c-3,0-5.1-2.7-5.1-6.7c0-3.9,2.1-6.7,5.1-6.7
	c2.2,0,3.9,1.5,4.7,3.8h2.6c-0.9-3.7-3.7-6.2-7.3-6.2c-4.4,0-7.6,3.8-7.6,9.1c0,5.3,3.2,9.1,7.6,9.1c4.4,0,7.6-3.8,7.6-9.1
	c0-0.1,0-0.3,0-0.4H424.8z"/>
<polygon class="st0" points="396.7,323 388.1,309.3 385.2,309.3 385.2,309.3 385.2,326.9 387.6,326.9 387.6,313.2 396.2,326.9 
	396.7,326.9 399.1,326.9 399.1,309.3 396.7,309.3 "/>
<path class="st0" d="M288.5,318.6c0,3.7-2,6.3-4.9,6.3c-2.9,0-4.9-2.6-4.9-6.3v-9.1h-2.5v9.1c0,5.1,3.1,8.8,7.3,8.8
	c4.2,0,7.3-3.7,7.3-8.8v-9.1h-2.5V318.6z"/>
<path class="st0" d="M256.1,316.7L256.1,316.7c-3.9,0-3.9-1.7-3.9-2.7c0-1.3,0-2.7,3.9-2.7c3.9,0,3.9,1.3,3.9,2.7h2.5
	c0-3.5-2-5.1-6.4-5.1c-4.3,0-6.4,1.6-6.4,5.1c0,2.3,1.1,5.1,6.4,5.1h0c4.5,0,4.5,1.9,4.5,2.9c0,0.9,0,2.9-4.5,2.9
	c-4.5,0-4.5-1.9-4.5-2.9h-2.5c0,2,0.9,5.3,6.9,5.3c5.7,0,6.9-2.9,6.9-5.3C263.1,319.6,261.9,316.7,256.1,316.7"/>
<path class="st0" d="M311.2,316.7L311.2,316.7c-3.9,0-3.9-1.7-3.9-2.7c0-1.3,0-2.7,3.9-2.7c3.9,0,3.9,1.3,3.9,2.7h2.5
	c0-3.5-2-5.1-6.4-5.1c-4.3,0-6.4,1.6-6.4,5.1c0,2.3,1.1,5.1,6.4,5.1h0c4.5,0,4.5,1.9,4.5,2.9c0,0.9,0,2.9-4.5,2.9
	c-4.5,0-4.5-1.9-4.5-2.9h-2.5c0,2,0.9,5.3,6.9,5.3c5.7,0,6.9-2.9,6.9-5.3C318.1,319.6,316.9,316.7,311.2,316.7"/>
<polygon class="st0" points="335.1,324.5 334.5,324.5 334.5,323.9 334.5,322.8 334.5,318.7 343.2,318.7 343.2,316.3 334.5,316.3 
	334.5,311.7 343.6,311.7 343.6,309.3 334.5,309.3 332.1,309.3 332.1,309.3 332.1,311.7 332.1,311.7 332.1,316.3 332.1,316.3 
	332.1,318.7 332.1,318.7 332.1,324.5 332.1,325.8 332.1,326.9 333.2,326.9 334.5,326.9 343.8,326.9 343.8,324.5 335.9,324.5 "/>
<polygon class="st0" points="510.6,309.2 504.6,309.2 504.6,311.6 510.6,311.6 510.6,327.1 513.1,327.1 513.1,311.6 519.1,311.6 
	519.1,309.2 513.1,309.2 "/>
<rect x="558.2" y="309.2" class="st0" width="2.5" height="17.9"/>
<path class="st0" d="M540.1,309.2L540.1,309.2h-5.5h-1.2h-1.2v17.9h2.5v-7.9h5.5c1.3,0,2.6-0.5,3.5-1.5c0.9-0.9,1.5-2.2,1.5-3.5v0
	c0-1.3-0.5-2.6-1.5-3.5C542.7,309.7,541.4,309.2,540.1,309.2 M541.9,315.9c-0.5,0.5-1.1,0.7-1.8,0.7h-5.5v-5h5.5
	c0.7,0,1.3,0.3,1.8,0.7c0.5,0.5,0.7,1.1,0.7,1.8C542.6,314.8,542.4,315.4,541.9,315.9"/>
<path class="st0" d="M490.9,317.5c0.9-0.9,1.4-2.1,1.4-3.4v0c0-1.3-0.5-2.5-1.4-3.4c-0.9-0.9-2.1-1.4-3.4-1.4h0h-5.5h-1.2h-1.2v4.9
	v4.9v8.2h2.5v-6v-2.2h4l5.7,8.2h3l-5.9-8.4C489.6,318.5,490.3,318.1,490.9,317.5 M481.9,316.4V314v-2.4h5.5c0.6,0,1.2,0.3,1.7,0.7
	c0.5,0.5,0.7,1.1,0.7,1.7v0c0,0.6-0.3,1.2-0.7,1.7c-0.5,0.5-1.1,0.7-1.7,0.7h-0.3h-3H481.9z"/>
<path class="st0" d="M459.5,309.2h-1.7H457l-6.5,17.9h2.5l2-5.5h7.3l2,5.5h2.5l-6.5-17.9H459.5z M455.8,319.3l2.8-7.7l2.8,7.7H455.8
	z"/>
<path class="st0" d="M587.3,327.1h2.5l-6.5-17.9h-0.7h-1.7h-0.7l-6.5,17.9h2.5l2-5.5h7.3L587.3,327.1z M578.9,319.3l2.8-7.7l2.8,7.7
	H578.9z"/>
<path class="st0" d="M110,379l36.8,48.8h15.2l-44.4-58.9l-5.5-7.2c-1.1-1.4-3.2-1.4-4.3,0l-5.5,7.2L58,427.9h15.2L110,379z"/>
<polygon class="st0" points="104,434.9 48.6,434.9 48.6,447.1 104,447.1 104,489 116.1,489 116.1,447.1 171.5,447.1 171.5,434.9 
	116.1,434.9 "/>
<path class="st0" d="M340.4,370c-20.9,0-37.8,14.9-37.8,48c0,33.1,16.9,48,37.8,48c20.9,0,37.8-14.9,37.8-48
	C378.3,384.8,361.3,370,340.4,370 M340.4,453.8c-14.2,0-25.7-11.1-25.7-35.8s11.5-35.8,25.7-35.8c14.2,0,25.7,11.1,25.7,35.8
	S354.6,453.8,340.4,453.8"/>
<polygon class="st0" points="424.2,379.8 424.2,367.6 401.3,367.6 389.1,367.6 389.1,367.6 389.1,379.8 389.1,379.8 389.1,478.5 
	401.3,478.5 401.3,379.8 "/>
<path class="st0" d="M706.7,370c-20.9,0-37.8,14.9-37.8,48c0,33.1,16.9,48,37.8,48c20.9,0,37.8-14.9,37.8-48
	C744.5,384.8,727.6,370,706.7,370 M706.7,453.8c-14.2,0-25.7-11.1-25.7-35.8s11.5-35.8,25.7-35.8c14.2,0,25.7,11.1,25.7,35.8
	S720.8,453.8,706.7,453.8"/>
<polygon class="st0" points="790.5,367.6 767.5,367.6 755.3,367.6 755.3,367.6 755.3,379.8 755.3,379.8 755.3,478.5 767.5,478.5 
	767.5,379.8 790.5,379.8 "/>
<polygon class="st0" points="529,439 529,426.8 450.6,426.8 450.6,410.6 524.9,410.6 524.9,398.5 450.6,398.5 450.6,382.3 
	526.3,382.3 526.3,370.1 450.6,370.1 438.4,370.1 438.4,382.3 438.4,398.5 438.4,410.6 438.4,426.8 438.4,439 450.6,439 "/>
<rect x="421.5" y="455.2" class="st0" width="124.3" height="12.2"/>
<rect x="641.8" y="362.2" class="st0" width="12.2" height="116.2"/>
<path class="st0" d="M605.3,369h-25.7h-12.2H554v12.2h13.5v70.3H554v12.2h13.5h12.2h25.7h12.2H631v-12.2h-13.5v-70.3H631V369h-13.5
	H605.3z M605.3,451.4h-25.7v-70.3h25.7V451.4z"/>
<path class="st0" d="M248.6,363.9v12.2h24.3v48c-1.3-1.2-2.7-2.3-4.1-3.3c-0.4-0.3-0.9-0.6-1.3-0.9l0,0c-0.1-0.1-0.2-0.1-0.3-0.2
	l-36.4-48.3l-5.5-7.2c-1.1-1.4-3.2-1.4-4.3,0l-5.5,7.2l-41.4,54.9h15.2l33.8-44.8l24.8,32.9c-0.3,0-0.6,0-0.8,0c-0.2,0-0.4,0-0.7,0
	c-19.8,0.8-35.6,16.7-35.6,38.5c0,22.3,16.6,38.5,37.2,38.5c20.5,0,37.2-16.2,37.2-38.5c0-0.5,0-1.1,0-1.6h0v-75.2v-12.2h-12.2
	H248.6z M247.9,479.3c-13.8,0-25-11.1-25-26.4c0-14.9,10.6-25.8,24-26.3c0.2,0,0.3,0,0.5,0c0.2,0,0.4,0,0.6,0
	c4.8,0,9.3,1.4,13.1,3.8l0,0c0.3,0.2,0.6,0.4,0.9,0.6c6.6,4.6,11,12.5,11,22C272.9,468.2,261.7,479.3,247.9,479.3"/>
</svg>
