<?xml version="1.0" encoding="utf-8"?>
<!-- Generator: Adobe Illustrator 26.2.1, SVG Export Plug-In . SVG Version: 6.00 Build 0)  -->
<svg version="1.1" id="레이어_1" xmlns="http://www.w3.org/2000/svg" xmlns:xlink="http://www.w3.org/1999/xlink" x="0px"
	 y="0px" viewBox="0 0 43 43" style="enable-background:new 0 0 43 43;" xml:space="preserve">
<style type="text/css">
	.st0{fill:#D7E0E2;}
	.st1{fill:#1F2839;}
</style>
<path class="st0" d="M7.7,13.1c0,0-1.1-1.8-2.4-1.3c-1.3,0.5-1.7,1.4-1.7,2.1c0,0.7,0.7,1.8,3.7,5.1l0.4,0.3l0.9-0.6
	c0,0,3.2-2.5,3.3-4.4c0.1-1.9-1.4-2.7-2.2-2.5C8.8,11.9,7.7,13.1,7.7,13.1z"/>
<path class="st0" d="M15.1,8.4c0,0-3.9,0.8-4.5,0.1C10,7.9,9,6.8,9.8,6s1.6-1,2-0.8c0.4,0.2-0.3-1.5,0.7-1.9s2.1-0.6,2.4,0.5
	S15.6,5.7,15.1,8.4z"/>
<path class="st0" d="M22.3,2.1c0,0-0.4-1.7-2.1-1.3c-1.7,0.4-2,1.2-2,2.2s1.2,2.7,3.7,4.7l0.5,0.4c0,0,3.4-2.6,3.7-3.5
	c0.4-0.9,0.7-2.4-0.3-3.2c-1-0.7-1.6-0.8-2-0.6s-1.4,1.1-1.4,1.1L22.3,2.1z"/>
<path class="st0" d="M32.8,5.1c0,0,0.4-1.1-0.5-1.7c-0.9-0.7-1.7-0.7-2.2-0.2s-0.5,1.7-0.6,3.4c0,1.7,0,2.1,0,2.1h1.9
	c0,0,2.6,0.2,3.1-0.5C35,7.5,35.7,7,35.1,6.1c-0.6-0.9-1.1-1.4-1.7-1C32.7,5.4,32.8,5.1,32.8,5.1z"/>
<path class="st0" d="M36.3,13.2c0,0-1.1-1.4-1.7-1.4c-0.6,0-1.9,0.1-2.3,1.4c-0.3,1.2-0.4,2.3,0.9,3.6s2.9,2.4,2.9,2.4l1.9-1.3
	c0,0,2.3-2.6,2.4-3.6c0.1-1-0.2-2-1-2.3c-0.7-0.3-1.4-0.3-1.9,0c-0.6,0.3-1.1,1-1.1,1"/>
<g>
	<g>
		<g>
			<path class="st1" d="M36.2,19.7C36.2,19.7,36.2,19.7,36.2,19.7c-0.1,0-0.2-0.1-0.3-0.1c-0.5-0.5-1-1-1.6-1.5
				c-1.4-1.3-2.8-2.5-2.8-3.9c0-2,1.3-2.8,2.6-2.8c1,0,1.6,0.4,2,0.9c0.3-0.4,0.9-0.9,2-0.9c1.5,0,2.6,1.1,2.6,2.6
				c0,1.8-1.5,3.1-3,4.4c-0.4,0.4-0.9,0.8-1.3,1.1C36.5,19.7,36.3,19.7,36.2,19.7z M34.2,12.3c-0.8,0-1.7,0.5-1.7,1.9
				c0,1,1.2,2.1,2.5,3.2c0.4,0.4,0.9,0.8,1.3,1.2c0.3-0.3,0.7-0.6,1-0.9c1.4-1.2,2.7-2.3,2.7-3.7c0-1-0.7-1.7-1.7-1.7
				c-0.9,0-1.3,0.4-1.6,1l0,0c-0.1,0.2-0.2,0.3-0.4,0.3c-0.2,0-0.4-0.1-0.4-0.3C35.5,12.8,35.2,12.3,34.2,12.3z"/>
		</g>
	</g>
	<g>
		<g>
			<path class="st1" d="M22.4,8.7C22.4,8.7,22.4,8.7,22.4,8.7c-0.1,0-0.2-0.1-0.3-0.1c-0.5-0.5-1-1-1.6-1.5
				c-1.4-1.3-2.8-2.5-2.8-3.9c0-2,1.3-2.8,2.6-2.8c1,0,1.6,0.4,2,0.9c0.3-0.4,0.9-0.9,2-0.9C25.9,0.4,27,1.5,27,3
				c0,1.8-1.5,3.1-3,4.4c-0.4,0.4-0.9,0.8-1.3,1.1C22.6,8.7,22.5,8.7,22.4,8.7z M20.4,1.3c-0.8,0-1.7,0.5-1.7,1.9
				c0,1,1.2,2.1,2.5,3.2c0.4,0.4,0.9,0.8,1.3,1.2c0.3-0.3,0.7-0.6,1-0.9c1.4-1.2,2.7-2.3,2.7-3.7c0-1-0.7-1.7-1.7-1.7
				c-0.9,0-1.3,0.4-1.6,1l0,0.1c-0.1,0.2-0.2,0.3-0.4,0.3c-0.2,0-0.4-0.1-0.4-0.3C21.7,1.7,21.3,1.3,20.4,1.3z"/>
		</g>
	</g>
	<g>
		<g>
			<path class="st1" d="M7.9,19.7C7.9,19.7,7.9,19.7,7.9,19.7c-0.1,0-0.2-0.1-0.3-0.1c-0.5-0.5-1-1-1.6-1.5
				c-1.4-1.3-2.8-2.5-2.8-3.9c0-2,1.3-2.8,2.6-2.8c1,0,1.6,0.4,2,0.9c0.3-0.4,0.9-0.9,2-0.9c1.5,0,2.6,1.1,2.6,2.6
				c0,1.8-1.5,3.1-3,4.4c-0.4,0.4-0.9,0.8-1.3,1.1C8.1,19.7,8,19.7,7.9,19.7z M5.9,12.3c-0.8,0-1.7,0.5-1.7,1.9c0,1,1.2,2.1,2.5,3.2
				c0.4,0.4,0.9,0.8,1.3,1.2c0.3-0.3,0.7-0.6,1-0.9c1.4-1.2,2.7-2.3,2.7-3.7c0-1-0.7-1.7-1.7-1.7c-0.9,0-1.3,0.4-1.6,1l0,0.1
				c-0.1,0.2-0.2,0.3-0.4,0.3c-0.2,0-0.4-0.1-0.4-0.3C7.2,12.8,6.8,12.3,5.9,12.3z"/>
		</g>
	</g>
	<g>
		<g>
			<path class="st1" d="M12.2,9.2c-1,0-1.8-0.1-2.4-0.7C9.3,8,9.1,7.4,9.1,6.8c0-0.5,0.2-1.1,0.7-1.5c0.6-0.6,1.1-0.7,1.6-0.7
				c0-0.4,0.1-1,0.7-1.6c0.9-0.9,2.2-0.9,3,0c1,1,0.9,2.6,0.8,4.2c0,0.4-0.1,0.9-0.1,1.3c0,0.1-0.1,0.2-0.1,0.3
				c-0.1,0.1-0.2,0.1-0.3,0.1c-0.5,0-1.1,0-1.7,0.1C13.1,9.2,12.6,9.2,12.2,9.2z M11.1,5.6c-0.3,0-0.5,0.1-0.8,0.4
				C10.2,6.1,10,6.4,10,6.8c0,0.4,0.2,0.7,0.5,1c0.5,0.5,1.8,0.5,3.1,0.4c0.4,0,0.9-0.1,1.3-0.1c0-0.3,0-0.6,0.1-0.9
				c0.1-1.4,0.2-2.7-0.5-3.5c-0.5-0.5-1.3-0.5-1.8,0c-0.5,0.5-0.5,0.9-0.3,1.3l0,0c0.1,0.2,0.1,0.4-0.1,0.5
				c-0.1,0.1-0.3,0.2-0.5,0.1C11.5,5.6,11.3,5.6,11.1,5.6z"/>
		</g>
	</g>
	<g>
		<g>
			<path class="st1" d="M32.3,9.3c-0.5,0-1,0-1.5-0.1c-0.4,0-0.9-0.1-1.3-0.1c-0.1,0-0.2-0.1-0.3-0.1c-0.1-0.1-0.1-0.2-0.1-0.3
				c0-0.5,0-1.1-0.1-1.7c-0.1-1.5-0.2-2.9,0.6-3.8c1.1-1.1,2.4-0.9,3.2-0.1c0.6,0.6,0.7,1.1,0.7,1.6c0.4,0,1,0.1,1.6,0.7
				c0.9,0.9,0.9,2.2,0,3C34.3,9.1,33.4,9.3,32.3,9.3z M30,8.2c0.3,0,0.6,0,0.9,0.1c1.4,0.1,2.7,0.2,3.5-0.5c0.5-0.5,0.5-1.3,0-1.8
				c-0.5-0.5-0.9-0.5-1.3-0.3l0,0c-0.2,0.1-0.4,0.1-0.5-0.1c-0.1-0.1-0.2-0.3-0.1-0.5c0.2-0.5,0.3-0.9-0.2-1.4
				c-0.6-0.6-1.3-0.5-1.9,0.1c-0.5,0.5-0.5,1.8-0.4,3.1C30,7.4,30,7.8,30,8.2z"/>
		</g>
	</g>
	<g>
		<path class="st1" d="M22.4,18.8c-2.1,0-3.8-1.7-3.8-3.8s1.7-3.8,3.8-3.8c2.1,0,3.8,1.7,3.8,3.8S24.5,18.8,22.4,18.8z M22.4,12.1
			c-1.6,0-2.9,1.3-2.9,2.9c0,1.6,1.3,2.9,2.9,2.9c1.6,0,2.9-1.3,2.9-2.9C25.3,13.4,24,12.1,22.4,12.1z"/>
	</g>
	<g>
		<path class="st1" d="M29.7,42.9h-15c-0.1,0-0.3-0.1-0.4-0.2c-0.1-0.1-0.1-0.3-0.1-0.4c0-0.1,4.4-14.1,4.4-17.6l-9.4-6
			C9.1,18.6,9,18.5,9,18.3c0-0.1,0-0.3,0.1-0.4l1.6-1.8c0.1-0.2,0.4-0.2,0.5-0.1l11.2,5.6l10.4-5.6c0.2-0.1,0.4-0.1,0.5,0.1l2,1.8
			c0.1,0.1,0.2,0.2,0.2,0.4c0,0.1-0.1,0.3-0.2,0.3l-9.4,6.1c-0.1,3.6,4.3,17.4,4.4,17.5c0,0.1,0,0.3-0.1,0.4
			C30,42.8,29.8,42.9,29.7,42.9z M15.3,42h13.8c-0.9-2.8-4.5-14.4-4.2-17.5c0-0.1,0.1-0.3,0.2-0.3l9.1-5.9l-1.3-1.2l-10.3,5.6
			c-0.1,0.1-0.3,0.1-0.4,0l-11.1-5.6l-1,1.1l9.2,5.9c0.1,0.1,0.2,0.2,0.2,0.3C19.8,27.3,16.2,39.1,15.3,42z"/>
	</g>
</g>
</svg>
