<?xml version="1.0" encoding="utf-8"?>
<!-- Generator: Adobe Illustrator 27.0.0, SVG Export Plug-In . SVG Version: 6.00 Build 0)  -->
<svg version="1.1" id="레이어_1" xmlns="http://www.w3.org/2000/svg" xmlns:xlink="http://www.w3.org/1999/xlink" x="0px"
	 y="0px" viewBox="0 0 17 17" style="enable-background:new 0 0 17 17;" xml:space="preserve">
<style type="text/css">
	.st0{fill:#666666;}
</style>
<path class="st0" d="M8.5,0.2C4,0.2,0.2,3.9,0.2,8.5s3.7,8.3,8.3,8.3s8.3-3.7,8.3-8.3S13.1,0.2,8.5,0.2z M9.3,13.8
	c-0.2,0.2-0.5,0.3-0.9,0.3c-0.5,0-0.8-0.1-1-0.3s-0.2-0.5-0.2-0.9s0.1-0.8,0.2-0.9c0.2-0.2,0.5-0.3,1-0.3s0.8,0.1,0.9,0.3
	c0.2,0.2,0.2,0.5,0.2,0.9C9.6,13.3,9.5,13.6,9.3,13.8z M9.1,10.6H7.7L7.2,3.5c0-0.1,0-0.2,0.1-0.2c0.1-0.1,0.2-0.1,0.4-0.1h1.5
	c0.2,0,0.3,0,0.4,0.1c0.1,0.1,0.1,0.1,0.1,0.2L9.1,10.6z"/>
</svg>
