<?xml version="1.0" encoding="utf-8"?>
<!-- Generator: Adobe Illustrator 26.2.1, SVG Export Plug-In . SVG Version: 6.00 Build 0)  -->
<svg version="1.1" id="레이어_1" xmlns="http://www.w3.org/2000/svg" xmlns:xlink="http://www.w3.org/1999/xlink" x="0px"
	 y="0px" viewBox="0 0 43 43" style="enable-background:new 0 0 43 43;" xml:space="preserve">
<style type="text/css">
	.st0{fill:#D7E0E2;}
	.st1{fill:#1F2839;}
</style>
<rect x="19" y="11.1" class="st0" width="5.3" height="28"/>
<path class="st0" d="M21.2,9.8c0,0-5.8-9.2-9.2-6.8s-2,5.4,0.6,6.6s8.6,0.4,8.6,0.4L21.2,9.8z"/>
<polygon class="st0" points="21.9,10.3 25.6,5.2 28.5,3.2 30.9,2.8 32.1,4.6 33.1,6 33.1,7.8 32.2,9.3 30.8,9.9 27.4,10.6 "/>
<g>
	<g>
		<path class="st1" d="M35.3,40.3H7.9c-1,0-1.8-0.8-1.8-1.8V18.9c0-0.3,0.3-0.5,0.5-0.5c0.3,0,0.5,0.3,0.5,0.5v19.6
			c0,0.4,0.3,0.6,0.6,0.6h27.5c0.4,0,0.6-0.3,0.6-0.6V18.9c0-0.3,0.3-0.5,0.5-0.5c0.3,0,0.5,0.3,0.5,0.5v19.6
			C37.1,39.5,36.3,40.3,35.3,40.3z"/>
	</g>
	<g>
		<path class="st1" d="M37.5,19.3H25c-0.3,0-0.5-0.3-0.5-0.5c0-0.3,0.3-0.5,0.5-0.5h12.6c0.4,0,0.6-0.3,0.6-0.6V12
			c0-0.4-0.3-0.6-0.6-0.6H5.7C5.4,11.2,5,11.6,5,12v5.5c0,0.4,0.3,0.6,0.6,0.6h12.5c0.3,0,0.5,0.3,0.5,0.5s-0.3,0.5-0.5,0.5H5.6
			c-1,0-1.8-0.8-1.8-1.8v-5.5c0-1,0.8-1.8,1.8-1.8h31.8c1,0,1.8,0.8,1.8,1.8v5.6C39.3,18.5,38.5,19.3,37.5,19.3z"/>
	</g>
	<g>
		<g>
			<g>
				<path class="st1" d="M18.6,39.7c-0.3,0-0.5-0.3-0.5-0.5V10.7c0-0.3,0.3-0.5,0.5-0.5s0.5,0.3,0.5,0.5V39
					C19.2,39.4,18.9,39.7,18.6,39.7z"/>
			</g>
		</g>
		<g>
			<g>
				<path class="st1" d="M24.6,39.7c-0.3,0-0.5-0.3-0.5-0.5V10.7c0-0.3,0.3-0.5,0.5-0.5s0.5,0.3,0.5,0.5V39
					C25.2,39.4,25,39.7,24.6,39.7z"/>
			</g>
		</g>
	</g>
	<g>
		<g>
			<path class="st1" d="M21.8,11.2c-5,0-10.2,0-11.8-2.4c-0.6-1-0.6-2.2,0-3.7c0.7-1.7,1.8-2.6,3-2.7c0.1,0,0.2,0,0.3,0
				c3.8,0,8.4,7,8.9,7.8c0.1,0.2,0.1,0.4,0,0.5C22.2,11.2,22,11.2,21.8,11.2z M13.3,3.7c-0.1,0-0.1,0-0.2,0c-0.9,0.1-1.6,0.7-2.1,2
				c-0.4,1.1-0.4,2,0,2.6c1.2,1.7,5.6,1.9,9.8,1.9C19.1,7.8,15.8,3.7,13.3,3.7z"/>
		</g>
		<g>
			<path class="st1" d="M21.4,11.2c-0.2,0-0.4-0.1-0.4-0.3s-0.1-0.4,0-0.5c0.5-0.8,5.3-8.2,9.2-7.8c1.3,0.1,2.3,1,3,2.7
				c0.6,1.5,0.6,2.7,0,3.7C31.7,11.2,26.5,11.2,21.4,11.2z M29.9,3.7c-2.4,0-5.8,4.1-7.4,6.5c4.2,0,8.6-0.2,9.8-1.9
				c0.4-0.6,0.4-1.5-0.1-2.7c-0.5-1.2-1.2-2-2.1-2C30,3.7,30,3.7,29.9,3.7z"/>
		</g>
	</g>
</g>
</svg>
